<svg width="200" height="200" viewBox="0 0 200 200" fill="none" xmlns="http://www.w3.org/2000/svg">
<circle cx="100" cy="100" r="100" fill="#4B83C1"/>
<g clip-path="url(#clip0_16_344)">
<path d="M100.012 50C117.925 50 141.887 58.5313 159.587 69.7188C160.641 70.3839 161.471 71.3484 161.972 72.4888C162.473 73.6291 162.622 74.8932 162.4 76.1188L149.9 144.869C149.638 146.309 148.879 147.611 147.755 148.549C146.631 149.487 145.214 150 143.75 150H56.25C54.7863 150 53.3689 149.487 52.245 148.549C51.1211 147.611 50.362 146.309 50.1 144.869L37.6 76.1188C37.3777 74.8932 37.5266 73.6291 38.0278 72.4888C38.5289 71.3484 39.3593 70.3839 40.4125 69.7188C58.125 58.5188 82.4375 49.9688 100.012 50ZM100 81.25C98.3424 81.25 96.7527 81.9085 95.5806 83.0806C94.4085 84.2527 93.75 85.8424 93.75 87.5V93.75H87.5C85.9692 93.7502 84.4916 94.3123 83.3477 95.3295C82.2037 96.3467 81.4728 97.7485 81.2937 99.2688L81.25 100C81.25 101.658 81.9085 103.247 83.0806 104.419C84.2527 105.592 85.8424 106.25 87.5 106.25H93.75V112.5C93.7502 114.031 94.3122 115.508 95.3295 116.652C96.3467 117.796 97.7484 118.527 99.2687 118.706L100 118.75C101.658 118.75 103.247 118.092 104.419 116.919C105.592 115.747 106.25 114.158 106.25 112.5V106.25H112.5C114.031 106.25 115.508 105.688 116.652 104.671C117.796 103.653 118.527 102.252 118.706 100.731L118.75 100C118.75 98.3424 118.092 96.7527 116.919 95.5806C115.747 94.4085 114.158 93.75 112.5 93.75H106.25V87.5C106.25 85.9692 105.688 84.4917 104.671 83.3477C103.653 82.2037 102.252 81.4729 100.731 81.2938L100 81.25Z" fill="white"/>
<path d="M120 158H156" stroke="white" stroke-width="8" stroke-linecap="round" stroke-linejoin="round"/>
<path d="M107 170H143" stroke="white" stroke-width="8" stroke-linecap="round" stroke-linejoin="round"/>
</g>
<defs>
<clipPath id="clip0_16_344">
<rect width="150" height="150" fill="white" transform="translate(25 25)"/>
</clipPath>
</defs>
</svg>
